<svg width="7" height="12" viewBox="0 0 7 12" fill="none" xmlns="http://www.w3.org/2000/svg">
<path d="M0.137053 1.00192L5.00905 5.99992L0.137053 10.9979C0.0498306 11.0872 0.000999901 11.2071 0.000999907 11.3319C0.000999912 11.4568 0.0498306 11.5766 0.137053 11.6659C0.179417 11.7092 0.229983 11.7435 0.285789 11.767C0.341595 11.7904 0.40152 11.8025 0.462053 11.8025C0.522586 11.8025 0.58251 11.7904 0.638316 11.767C0.694122 11.7435 0.744688 11.7092 0.787053 11.6659L5.97105 6.34892C6.06207 6.25555 6.113 6.13032 6.113 5.99992C6.113 5.86953 6.06207 5.7443 5.97105 5.65092L0.788053 0.333924C0.745656 0.29038 0.694966 0.255772 0.638975 0.232141C0.582984 0.208508 0.522826 0.196335 0.462052 0.196335C0.401278 0.196335 0.34112 0.208508 0.285129 0.232141C0.229138 0.255772 0.178448 0.29038 0.136052 0.333924C0.0488297 0.423222 -4.92164e-07 0.543097 -4.86707e-07 0.667925C-4.81251e-07 0.792752 0.0488298 0.912626 0.136052 1.00192L0.137053 1.00192Z" fill="white"/>
</svg>
