<svg width="16" height="16" viewBox="0 0 16 16" fill="none" xmlns="http://www.w3.org/2000/svg">
<path d="M2.02293 0.280996C0.968845 1.39281 0.173367 2.42949 0 3.44586C0.0287029 5.73874 2.19088 8.57821 4.78915 11.1725C7.37368 13.7532 10.367 16.3011 12.5435 15.9711C13.5662 15.7972 14.6096 14.9955 15.7309 13.9337C16.091 13.5903 16.0908 12.8512 15.7238 12.4847L13.5109 10.2752C13.1292 9.89399 12.389 9.89383 11.9028 10.1512L10.4131 11.2418C9.61803 11.9191 7.9431 10.2573 6.83119 9.147C5.72187 8.03935 4.02911 6.53543 4.74272 5.56365L5.83181 4.08037C6.08571 3.59997 6.08566 2.86099 5.72158 2.49747L3.51738 0.296557C3.1241 -0.0961246 2.38391 -0.0963399 2.023 0.281076L2.02293 0.280996Z" fill="black"/>
</svg>
