<svg width="20" height="17" viewBox="0 0 20 17" fill="none" xmlns="http://www.w3.org/2000/svg">
<path d="M7.07317 0L5.85366 2.43902H1.70732C0.761463 2.43902 0 3.20049 0 4.14634V14.878C0 15.8239 0.761463 16.5854 1.70732 16.5854H18.2927C19.2385 16.5854 20 15.8239 20 14.878V4.14634C20 3.20049 19.2385 2.43902 18.2927 2.43902H14.1463L12.9268 0H7.07317ZM10 4.14634C12.952 4.14634 15.3659 6.56028 15.3659 9.5122C15.3659 12.4641 12.952 14.878 10 14.878C7.0481 14.878 4.63415 12.4641 4.63415 9.5122C4.63415 6.56027 7.0481 4.14634 10 4.14634ZM10 6.09756C8.10263 6.09756 6.58537 7.6148 6.58537 9.5122C6.58537 11.4096 8.10263 12.9268 10 12.9268C11.8974 12.9268 13.4146 11.4096 13.4146 9.5122C13.4146 7.61478 11.8974 6.09756 10 6.09756Z" fill="white"/>
</svg>
