<svg width="12" height="12" viewBox="0 0 12 12" fill="none" xmlns="http://www.w3.org/2000/svg">
<path d="M5.55882 11.1176C2.48862 11.1176 0 8.62903 0 5.55882C0 2.48862 2.48862 0 5.55882 0C8.62903 0 11.1176 2.48862 11.1176 5.55882C11.1176 8.62903 8.62903 11.1176 5.55882 11.1176ZM5.47197 1.38971C3.21717 1.38971 1.38971 3.21717 1.38971 5.47197C1.38971 7.72676 3.21717 9.55423 5.47197 9.55423C7.72676 9.55423 9.55423 7.72676 9.55423 5.47197C9.55423 4.38928 9.12413 3.35094 8.35856 2.58537C7.59299 1.8198 6.55465 1.38971 5.47197 1.38971ZM5.47197 8.53627C4.65926 8.53627 3.87985 8.21342 3.30518 7.63875C2.73051 7.06409 2.40767 6.28467 2.40767 5.47197C2.40767 4.65926 2.73051 3.87985 3.30518 3.30518C3.87985 2.73051 4.65926 2.40767 5.47197 2.40767C6.28467 2.40767 7.06409 2.73051 7.63875 3.30518C8.21342 3.87985 8.53627 4.65926 8.53627 5.47197C8.53627 6.28467 8.21342 7.06409 7.63875 7.63875C7.06409 8.21342 6.28467 8.53627 5.47197 8.53627ZM4.45401 5.47544L5.47544 7.00412L6.48993 5.47544L5.47544 3.94329L4.45401 5.47544Z" fill="url(#paint0_linear_198_3660)"/>
<defs>
<linearGradient id="paint0_linear_198_3660" x1="5.55882" y1="0" x2="5.55882" y2="11.1176" gradientUnits="userSpaceOnUse">
<stop stop-color="#FFEC44"/>
<stop offset="0.505208" stop-color="#FBF2A1"/>
<stop offset="1" stop-color="#C0A92F"/>
</linearGradient>
</defs>
</svg>
