<svg width="18" height="16" viewBox="0 0 18 16" fill="none" xmlns="http://www.w3.org/2000/svg">
<path fill-rule="evenodd" clip-rule="evenodd" d="M1.5 0C0.677649 0 0 0.6777 0 1.5V14.5C0 15.3224 0.677649 16 1.5 16H10.5C11.3224 16 12 15.3224 12 14.5V11H11V14.5C11 14.7857 10.7856 15 10.5 15H1.5C1.21435 15 1 14.7857 1 14.5V1.5C1 1.2144 1.21435 1 1.5 1H10.5C10.7856 1 11 1.2144 11 1.5V6H12V1.5C12 0.6777 11.3224 0 10.5 0H1.5ZM14.5469 5.19336L13.8398 5.90039L15.9863 8.04688H8.19336V9.04688H15.9863L13.8398 11.1934L14.5469 11.9004L17.9004 8.54688L14.5469 5.19336Z" fill="white"/>
</svg>
