<svg width="22" height="15" viewBox="0 0 22 15" fill="none" xmlns="http://www.w3.org/2000/svg">
<path d="M9.15484 8.49509C10.272 7.75958 11.0131 6.4801 11.0131 5.02694C11.0131 2.75315 9.19894 0.9 6.96475 0.9C4.73056 0.9 2.91636 2.75315 2.91636 5.02694C2.91636 6.49132 3.66896 7.77965 4.80064 8.51228C2.52027 9.41756 0.9 11.6854 0.9 14.3333V14.4333H1H1.84608H1.94608V14.3333C1.94608 11.4752 4.21563 9.15388 7 9.15388C9.78451 9.15388 12.0539 11.4752 12.0539 14.3333V14.4333H12.1539H13H13.1V14.3333C13.1 11.6682 11.4588 9.38841 9.15484 8.49509ZM3.96244 5.02694C3.96244 3.33563 5.31118 1.96292 6.96475 1.96292C8.61831 1.96292 9.96705 3.33563 9.96705 5.02694C9.96705 6.71825 8.61831 8.09096 6.96475 8.09096C5.31119 8.09096 3.96244 6.7181 3.96244 5.02694Z" fill="#FEFEFE" stroke="#FEFEFE" stroke-width="0.2"/>
<path d="M17.76 9.08145C18.705 8.41522 19.3287 7.265 19.3287 5.96213C19.3287 3.91607 17.7883 2.23789 15.8785 2.23789C13.9688 2.23789 12.4284 3.91607 12.4284 5.96213C12.4284 7.27404 13.0607 8.43148 14.0168 9.09548C13.1351 9.44638 12.6586 9.76673 12.3406 10.1464C12.1716 10.3483 12.0503 10.5634 11.9364 10.8007C11.8796 10.919 11.8242 11.0439 11.7659 11.1755L11.7654 11.1764C11.7071 11.3081 11.6455 11.4468 11.5756 11.5953L11.5083 11.7379H11.666H12.3839H12.4415L12.4704 11.6881C12.4905 11.6535 12.5103 11.6193 12.5299 11.5854C12.8533 11.0264 13.1169 10.5707 13.5623 10.2427C14.0309 9.89758 14.7134 9.68638 15.9084 9.68638C18.2569 9.68638 20.1815 11.7652 20.1815 14.3379V14.4379H20.2815H20.9993H21.0993V14.3379C21.0993 11.9451 19.7138 9.89292 17.76 9.08145ZM13.3463 5.96213C13.3463 4.43961 14.4896 3.21451 15.8785 3.21451C17.2675 3.21451 18.4108 4.43961 18.4108 5.96213C18.4108 7.48466 17.2675 8.70975 15.8785 8.70975C14.4896 8.70975 13.3463 7.48453 13.3463 5.96213Z" fill="#FEFEFE" stroke="#FEFEFE" stroke-width="0.2"/>
</svg>
