<svg width="14" height="15" viewBox="0 0 14 15" fill="none" xmlns="http://www.w3.org/2000/svg">
<path d="M8.94782 4.64706L11.9304 2.82354L9.00868 0L7.12174 4.05883L6.02609 0.88235L3.10435 2.7647L5.53912 4.64705H0V8.41178H0.973912V15H13.0261V8.41176H14V4.64706H8.94782ZM9.2551 1.23639L10.7839 2.71382L7.66535 4.62495L9.2551 1.23639ZM5.63553 1.98232L6.49879 4.48502L4.34064 2.81656L5.63553 1.98232ZM6.02609 14.0588H1.94782V8.11695H6.02609V14.0588ZM6.02609 7.47057H0.973912V5.58824H6.02609V7.47057ZM12.0522 14.0588H7.9739V8.11695H12.0522V14.0588ZM13.0261 7.47057H7.9739V5.58824H13.0261V7.47057Z" fill="white"/>
</svg>
