<svg width="24" height="14" viewBox="0 0 24 14" fill="none" xmlns="http://www.w3.org/2000/svg">
<path d="M14.1365 7.55654C15.2341 6.85526 15.9632 5.63898 15.9632 4.2564C15.9632 2.08593 14.1683 0.323065 11.9654 0.323065C9.76257 0.323065 7.96766 2.08593 7.96766 4.2564C7.96766 5.64971 8.70807 6.87441 9.82001 7.57299C7.57455 8.43706 5.97715 10.5942 5.97715 13.1154V13.2154H6.07715H6.91238H7.01238V13.1154C7.01238 10.4007 9.24887 8.18973 12.0002 8.18973C14.7517 8.18973 16.9881 10.4007 16.9881 13.1154V13.2154H17.0881H17.9233H18.0233V13.1154C18.0233 10.5777 16.4052 8.40925 14.1365 7.55654ZM9.00289 4.2564C9.00289 2.6524 10.3304 1.34449 11.9654 1.34449C13.6005 1.34449 14.928 2.6524 14.928 4.2564C14.928 5.8604 13.6005 7.16831 11.9654 7.16831C10.3304 7.16831 9.00289 5.86026 9.00289 4.2564Z" fill="#FEFEFE" stroke="#FEFEFE" stroke-width="0.2"/>
<path d="M20.7102 7.70968C21.3777 7.2305 21.8155 6.42597 21.8155 5.51701C21.8155 4.05748 20.6854 2.86146 19.2857 2.86146C17.886 2.86146 16.7559 4.05748 16.7559 5.51701C16.7559 6.43181 17.1993 7.24103 17.8741 7.71904C17.2658 7.95929 16.9282 8.18216 16.6996 8.44749C16.5747 8.59244 16.4854 8.74658 16.4023 8.91504C16.3609 8.99901 16.3205 9.08751 16.2782 9.18016L16.2779 9.18075C16.2356 9.27361 16.1911 9.37118 16.1405 9.47552L16.0708 9.61915H16.2305H16.7511H16.8079L16.837 9.5704C16.8513 9.54652 16.8653 9.52292 16.8792 9.49959C17.1147 9.1039 17.303 8.78761 17.621 8.55986C17.9544 8.32117 18.4431 8.17257 19.3074 8.17257C20.996 8.17257 22.379 9.62559 22.379 11.423V11.523H22.479H22.9997H23.0997V11.423C23.0997 9.74295 22.1109 8.29964 20.7102 7.70968ZM17.4766 5.51701C17.4766 4.46023 18.2929 3.60908 19.2857 3.60908C20.2785 3.60908 21.0948 4.46023 21.0948 5.51701C21.0948 6.5738 20.2785 7.42495 19.2857 7.42495C18.2929 7.42495 17.4766 6.57371 17.4766 5.51701Z" fill="#FEFEFE" stroke="#FEFEFE" stroke-width="0.2"/>
<path d="M3.28978 7.70968C2.6223 7.2305 2.18452 6.42597 2.18452 5.51701C2.18452 4.05748 3.31461 2.86146 4.7143 2.86146C6.11398 2.86146 7.24407 4.05748 7.24407 5.51701C7.24407 6.43181 6.80069 7.24103 6.12589 7.71904C6.73417 7.95929 7.07184 8.18216 7.30041 8.44749C7.42529 8.59244 7.51457 8.74658 7.59771 8.91504C7.63915 8.99901 7.67952 9.08751 7.72179 9.18016L7.72206 9.18075C7.76442 9.27361 7.80892 9.37118 7.85951 9.47552L7.92915 9.61915H7.76953H7.24887H7.19209L7.16299 9.5704C7.14875 9.54652 7.1347 9.52292 7.12081 9.49959C6.88529 9.1039 6.69703 8.78761 6.37896 8.55986C6.04562 8.32117 5.55686 8.17257 4.6926 8.17257C3.00401 8.17257 1.62097 9.62559 1.62097 11.423V11.523H1.52097H1.0003H0.900301V11.423C0.900301 9.74295 1.88912 8.29964 3.28978 7.70968ZM6.52341 5.51701C6.52341 4.46023 5.70707 3.60908 4.7143 3.60908C3.72152 3.60908 2.90519 4.46023 2.90519 5.51701C2.90519 6.5738 3.72152 7.42495 4.7143 7.42495C5.70707 7.42495 6.52341 6.57371 6.52341 5.51701Z" fill="#FEFEFE" stroke="#FEFEFE" stroke-width="0.2"/>
</svg>
