<svg width="22" height="19" viewBox="0 0 22 19" fill="none" xmlns="http://www.w3.org/2000/svg">
<path d="M2.50553 9.98898L2.50554 9.98899L10.646 17.8744C10.6461 17.8745 10.6463 17.8747 10.6464 17.8748C10.7903 18.0169 10.9838 18.0977 11.186 18.1C11.3885 18.1022 11.5839 18.0257 11.731 17.8865L11.7318 17.8858C13.116 16.5471 14.5013 15.2067 15.8866 13.8664C17.2193 12.577 18.5519 11.2875 19.8836 9.99959C22.0257 7.92805 22.0257 4.53022 19.8836 2.45858C17.7434 0.388748 14.2962 0.388706 12.156 2.45858L12.156 2.45864L11.2049 3.38L10.2332 2.44795C10.2331 2.44789 10.2331 2.44783 10.233 2.44777C9.16253 1.41261 7.76461 0.9 6.3694 0.9H6.2694V0.900961C4.90749 0.924876 3.55052 1.43748 2.5056 2.44804C0.363436 4.51966 0.366187 7.91603 2.50553 9.98898ZM9.14824 3.5696L9.14833 3.56968L10.6574 5.02566C10.803 5.16641 10.9975 5.24511 11.1999 5.24511C11.4024 5.24511 11.5969 5.16641 11.7424 5.02566L13.2409 3.58032L13.241 3.58023C14.7791 2.09264 17.2605 2.09267 18.7987 3.58023C20.3349 5.06597 20.3349 7.39248 18.7987 8.87814C17.5272 10.1078 16.2578 11.3375 14.9883 12.5671C13.7244 13.7914 12.4605 15.0157 11.1947 16.2399L3.59064 8.86757L3.59062 8.86755C2.05521 7.3798 2.05438 5.05519 3.59055 3.5696L3.59055 3.5696C4.35953 2.82591 5.36495 2.44987 6.3694 2.44987C7.37384 2.44987 8.37925 2.82591 9.14824 3.5696Z" fill="#FEFEFE" stroke="white" stroke-width="0.2"/>
</svg>
