<svg width="21" height="21" viewBox="0 0 21 21" fill="none" xmlns="http://www.w3.org/2000/svg">
<g clip-path="url(#clip0_467_151)">
<path d="M10.4252 0.434387C8.44924 0.434387 6.51766 1.02033 4.87471 2.11811C3.23176 3.2159 1.95123 4.77622 1.19507 6.60177C0.438899 8.42731 0.241051 10.4361 0.626542 12.3741C1.01203 14.3121 1.96355 16.0922 3.36076 17.4895C4.75798 18.8867 6.53813 19.8382 8.47613 20.2237C10.4141 20.6092 12.4229 20.4113 14.2484 19.6551C16.074 18.899 17.6343 17.6185 18.7321 15.9755C19.8299 14.3326 20.4158 12.401 20.4158 10.425C20.4158 7.77533 19.3632 5.23418 17.4896 3.36057C15.616 1.48697 13.0749 0.434387 10.4252 0.434387ZM10.4252 18.9884C8.73152 18.9884 7.07588 18.4862 5.66763 17.5452C4.25939 16.6043 3.1618 15.2668 2.51366 13.7021C1.86551 12.1373 1.69593 10.4155 2.02635 8.75438C2.35677 7.09324 3.17235 5.56739 4.36997 4.36978C5.56758 3.17217 7.09343 2.35658 8.75457 2.02616C10.4157 1.69574 12.1375 1.86533 13.7023 2.51347C15.267 3.16161 16.6044 4.2592 17.5454 5.66745C18.4864 7.07569 18.9886 8.73133 18.9886 10.425C18.9886 12.6962 18.0864 14.8743 16.4804 16.4802C14.8745 18.0862 12.6964 18.9884 10.4252 18.9884Z" fill="white"/>
<path d="M10.4249 16.8475C11.0161 16.8475 11.4953 16.3683 11.4953 15.7771C11.4953 15.1859 11.0161 14.7067 10.4249 14.7067C9.83374 14.7067 9.35449 15.1859 9.35449 15.7771C9.35449 16.3683 9.83374 16.8475 10.4249 16.8475Z" fill="white"/>
<path d="M11.1381 4.71607H10.0677C9.64575 4.71513 9.22775 4.79755 8.83771 4.9586C8.44768 5.11965 8.0933 5.35615 7.79492 5.65453C7.49653 5.95292 7.26003 6.3073 7.09898 6.69733C6.93793 7.08737 6.85551 7.50537 6.85645 7.92734V8.28415H8.28369V7.92734C8.28369 7.45419 8.47165 7.00041 8.80622 6.66584C9.14079 6.33127 9.59457 6.1433 10.0677 6.1433H11.1381C11.6113 6.1433 12.0651 6.33127 12.3997 6.66584C12.7342 7.00041 12.9222 7.45419 12.9222 7.92734C12.9222 8.4005 12.7342 8.85428 12.3997 9.18885C12.0651 9.52342 11.6113 9.71139 11.1381 9.71139H9.71092V12.9227H11.1381V11.1386C11.9898 11.1386 12.8066 10.8003 13.4089 10.1981C14.0111 9.59583 14.3494 8.77903 14.3494 7.92734C14.3494 7.07566 14.0111 6.25886 13.4089 5.65663C12.8066 5.0544 11.9898 4.71607 11.1381 4.71607Z" fill="white"/>
</g>
<defs>
<clipPath id="clip0_467_151">
<rect width="20.85" height="20.85" fill="white"/>
</clipPath>
</defs>
</svg>
