<svg width="21" height="20" viewBox="0 0 21 20" fill="none" xmlns="http://www.w3.org/2000/svg">
<path d="M10.5268 0.000301721C10.501 -0.000399505 10.4753 0.000121726 10.4495 0.00186358C10.449 0.00186308 10.4485 0.00186308 10.4479 0.00186358C10.4474 0.00186308 10.4469 0.00186308 10.4464 0.00186358C10.4453 0.00186155 10.4443 0.00186155 10.4432 0.00186358C10.3309 0.00857318 10.2213 0.0384351 10.1213 0.0895364C10.0213 0.140638 9.93326 0.211851 9.86271 0.298614C9.72747 0.419173 4.69997 4.90089 2.68525 6.696L0.267029 8.84984C0.188207 8.92019 0.124152 9.00522 0.0785216 9.10008C0.0328906 9.19494 0.00657723 9.29777 0.0010836 9.4027C-0.00441004 9.50763 0.0110237 9.6126 0.0465037 9.71162C0.0819837 9.81064 0.136815 9.90178 0.207867 9.97982C0.278919 10.0579 0.364801 10.1213 0.460608 10.1665C0.556415 10.2116 0.660272 10.2377 0.766249 10.2431C0.872225 10.2486 0.978246 10.2333 1.07826 10.1982C1.17827 10.163 1.27031 10.1087 1.34914 10.0384L1.61573 9.80099V16.8013C1.61573 17.3995 1.61283 17.8592 1.6599 18.2741C1.70696 18.6889 1.81574 19.1246 2.1568 19.4626C2.49786 19.8007 2.93801 19.9093 3.35723 19.9562C3.77647 20.003 4.24137 19.9999 4.84639 19.9999H5.65406C6.259 19.9999 6.72397 20.003 7.14322 19.9562C7.56247 19.9093 8.00258 19.8007 8.34365 19.4626C8.68473 19.1246 8.79349 18.6889 8.84055 18.2741C8.88762 17.8592 8.88472 17.3995 8.88472 16.8013V15.2019C8.88472 14.6042 8.88843 14.1663 8.91785 13.9072C8.93255 13.7775 8.95074 13.7088 8.96044 13.6776C8.99236 13.6676 9.06145 13.65 9.19233 13.6354C9.45409 13.6061 9.89592 13.6026 10.5 13.6026C11.1041 13.6026 11.5459 13.6061 11.8077 13.6354C11.9386 13.65 12.0077 13.6676 12.0396 13.6776C12.0493 13.7088 12.0675 13.7775 12.0822 13.9072C12.1116 14.1664 12.1153 14.6042 12.1153 15.2019V16.8013C12.1153 17.4002 12.1122 17.8606 12.1595 18.2757C12.2068 18.6908 12.3166 19.1265 12.658 19.4642C12.9994 19.8019 13.4394 19.9096 13.8584 19.9562C14.2774 20.0028 14.7417 20 15.3459 20H16.1536C16.7585 20 17.2235 20.0031 17.6428 19.9562C18.062 19.9094 18.5021 19.8007 18.8432 19.4627C19.1843 19.1246 19.293 18.6889 19.3401 18.2741C19.3872 17.8593 19.3843 17.3995 19.3843 16.8013V9.80102L19.6509 10.0384C19.8101 10.1805 20.0197 10.2542 20.2337 10.2432C20.4478 10.2322 20.6486 10.1375 20.7921 9.97985C20.9356 9.82224 21.01 9.61464 20.9989 9.40273C20.9878 9.19082 20.8922 8.99195 20.733 8.84987L18.3147 6.69603C16.3014 4.90213 11.2824 0.428353 11.1404 0.301765C11.1399 0.301244 11.1394 0.300723 11.1389 0.300203C11.0652 0.208995 10.9722 0.134882 10.8664 0.0830735C10.7607 0.0312655 10.6448 0.00302103 10.5268 0.000325744L10.5268 0.000301721ZM10.5 1.88545C10.8308 2.18019 12.3529 3.5359 13.7874 4.81394L17.2374 7.88772C17.5758 8.19108 17.769 8.62136 17.769 9.07316V16.8013C17.769 17.399 17.7653 17.8369 17.7358 18.096C17.7211 18.2256 17.7029 18.2944 17.6933 18.3256C17.6613 18.3356 17.5922 18.3532 17.4614 18.3678C17.1996 18.397 16.7578 18.4006 16.1537 18.4006H15.346C14.7424 18.4006 14.3001 18.3969 14.0383 18.3678C13.9074 18.3532 13.838 18.3352 13.8064 18.3256C13.7964 18.294 13.7786 18.2256 13.7638 18.096C13.7343 17.8369 13.7307 17.3994 13.7307 16.8013V15.2019C13.7307 14.6037 13.7336 14.144 13.6866 13.7291C13.6395 13.3143 13.5307 12.8786 13.1897 12.5405C12.8486 12.2025 12.4084 12.0938 11.9892 12.047C11.57 12.0001 11.1051 12.0033 10.5001 12.0033C9.89503 12.0033 9.43014 12.0001 9.01089 12.047C8.59164 12.0938 8.15153 12.2025 7.81046 12.5405C7.46938 12.8786 7.36062 13.3143 7.31356 13.7291C7.26649 14.1439 7.26939 14.6037 7.26939 15.2019V16.8013C7.26939 17.399 7.26568 17.8369 7.23626 18.096C7.22156 18.2256 7.20337 18.2944 7.19367 18.3256C7.16175 18.3356 7.09266 18.3532 6.96178 18.3678C6.70002 18.397 6.25819 18.4006 5.6541 18.4006H4.84643C4.2423 18.4006 3.80051 18.3971 3.53875 18.3678C3.40786 18.3532 3.33878 18.3356 3.30686 18.3256C3.29716 18.2944 3.27897 18.2256 3.26427 18.096C3.23486 17.8368 3.23114 17.3989 3.23114 16.8013V9.07316C3.23114 8.61985 3.42541 8.18808 3.7659 7.8846C4.73324 7.02271 5.70849 6.15403 7.21268 4.81402L10.5001 1.88553L10.5 1.88545Z" fill="#757F8C"/>
</svg>
