<svg width="18" height="18" viewBox="0 0 18 18" fill="none" xmlns="http://www.w3.org/2000/svg">
<path d="M17.632 0.34723C17.2349 -0.049822 16.5724 -0.181402 16.048 0.35802L8.97925 7.4268L1.91069 0.358246C1.47354 -0.0915008 0.750838 -0.0902926 0.319054 0.355243C-0.112518 0.800969 -0.102305 1.50363 0.337522 1.93152L7.40608 9.00008L0.337287 16.0689C-0.112473 16.506 -0.111271 17.2287 0.333951 17.6605C0.779673 18.0921 1.48232 18.0818 1.91022 17.642L8.97902 10.5733L16.0476 17.6418C17.0963 18.7206 18.6996 17.1173 17.6208 16.0686L10.5522 9.00003L17.621 1.93124C18.1608 1.40723 18.0289 0.74434 17.6322 0.347281L17.632 0.34723Z" fill="#EF3672"/>
</svg>
