<svg width="19" height="14" viewBox="0 0 19 14" fill="none" xmlns="http://www.w3.org/2000/svg">
<path d="M19 1.19537L18.9931 1.19C18.9247 0.524067 18.3483 0 17.6534 0H1.34639C0.651462 0 0.0752876 0.524067 0.00688757 1.18977L0 1.19537L0.0064126 1.20027C0.0026126 1.24063 0 1.28147 0 1.32277V12.6772C0 13.4048 0.605862 14 1.34639 14H17.6534C18.3941 14 19 13.4048 19 12.6772V1.32277C19 1.28147 18.9974 1.24063 18.9936 1.20027L19 1.19537ZM15.1043 1.86667L9.5 6.2713L3.89571 1.86667H15.1043ZM17.1 12.1333H1.9V2.68847L8.90649 8.19537C9.07986 8.33187 9.29005 8.4 9.5 8.4C9.71019 8.4 9.92014 8.33187 10.0935 8.19537L17.1 2.68847V12.1333Z" fill="#FEFEFE"/>
</svg>
