<svg width="19" height="15" viewBox="0 0 19 15" fill="none" xmlns="http://www.w3.org/2000/svg">
<path d="M18.312 1.21707C18.1631 1.6346 18.0119 2.05454 17.863 2.47207C17.507 3.47031 17.1487 4.46615 16.7928 5.46439C16.3577 6.67859 15.925 7.8928 15.4899 9.1046C15.1176 10.1484 14.7431 11.1899 14.3708 12.2337C14.1894 12.7424 13.9823 13.2487 13.8241 13.7647C13.8218 13.7719 13.8194 13.779 13.8171 13.7862C13.9869 13.7143 14.1591 13.6423 14.3289 13.5703C13.4355 12.956 12.5445 12.3417 11.6511 11.7298C10.9554 11.2523 10.2598 10.7723 9.56415 10.2948C9.10116 9.97566 8.63817 9.65891 8.17519 9.33976C8.17519 9.54613 8.17519 9.7549 8.17519 9.96126C8.53115 9.68291 8.88479 9.40455 9.24075 9.1262C10.0876 8.46391 10.9322 7.80161 11.779 7.13932C12.805 6.33545 13.8311 5.53158 14.8571 4.73011C15.7435 4.03662 16.6299 3.34073 17.5163 2.64724C17.9468 2.3113 18.3772 1.97535 18.8053 1.637C18.8122 1.63221 18.8169 1.62741 18.8239 1.62261C18.9728 1.50503 19.0519 1.31306 18.9495 1.13069C18.8634 0.97951 18.6238 0.883526 18.4726 1.00111C18.1166 1.27946 17.763 1.55782 17.407 1.83617C16.5601 2.49847 15.7156 3.16076 14.8687 3.82305C13.8427 4.62692 12.8167 5.43079 11.7907 6.23226C10.9042 6.92575 10.0178 7.62164 9.1314 8.31513C8.70099 8.65108 8.27058 8.98702 7.84249 9.32537C7.83551 9.33017 7.83086 9.33497 7.82388 9.33976C7.61216 9.50534 7.58889 9.80049 7.82388 9.96126C8.66377 10.5396 9.50598 11.1179 10.3459 11.6962C11.1765 12.2673 12.0047 12.836 12.8353 13.4071C13.2168 13.6687 13.5961 13.9302 13.9776 14.1918C14.18 14.331 14.4174 14.1798 14.4895 13.9758C14.6384 13.5583 14.7896 13.1384 14.9385 12.7208C15.2945 11.7226 15.6528 10.7267 16.0087 9.7285C16.4438 8.5143 16.8765 7.30009 17.3116 6.08829C17.6838 5.04446 18.0584 4.00302 18.4307 2.95919C18.6121 2.45047 18.8192 1.94415 18.9774 1.42824C18.9797 1.42104 18.9821 1.41384 18.9844 1.40664C19.0472 1.22907 18.9146 1.00351 18.7401 0.962713C18.5423 0.91952 18.3795 1.0275 18.312 1.21707Z" fill="#F9FAFB"/>
<path d="M18.4723 1.00243C18.0303 1.2352 17.5882 1.46796 17.1462 1.70312C16.0922 2.25983 15.0383 2.81654 13.9844 3.37325C12.7117 4.04514 11.4368 4.71944 10.1642 5.39133C9.05671 5.97443 7.95159 6.55994 6.84414 7.14304C6.48353 7.33261 6.12291 7.52458 5.76229 7.71415C5.59013 7.80534 5.41098 7.88933 5.24114 7.98771C5.23416 7.99251 5.22718 7.99491 5.21788 7.99971C5.33421 7.99971 5.45286 7.99971 5.56919 7.99971C5.00151 7.68056 4.43383 7.35901 3.86614 7.03986C2.96111 6.52874 2.05375 6.01763 1.14872 5.50651C0.939328 5.38893 0.729938 5.27135 0.520547 5.15137C0.492628 5.36973 0.464709 5.5905 0.436791 5.80886C0.59965 5.77287 0.76251 5.73447 0.925369 5.69848C1.36974 5.59769 1.81179 5.49691 2.25616 5.39613C2.91225 5.24735 3.56834 5.09857 4.22443 4.9498C5.02477 4.76743 5.82511 4.58746 6.62545 4.40509C7.50256 4.20592 8.37968 4.00675 9.25679 3.80758C10.1432 3.60601 11.0273 3.40685 11.9137 3.20528C12.7397 3.01811 13.5656 2.83094 14.3915 2.64377C15.0895 2.4854 15.7875 2.32702 16.4854 2.16865C16.988 2.05586 17.4905 1.94068 17.993 1.8279C18.2303 1.77511 18.4723 1.72712 18.7073 1.66473C18.7166 1.66233 18.7282 1.65993 18.7375 1.65753C18.9213 1.61673 19.0284 1.39597 18.9818 1.2136C18.9306 1.01683 18.7375 0.920847 18.5514 0.96164C18.3885 0.997635 18.2257 1.03603 18.0628 1.07202C17.6185 1.17281 17.1764 1.27359 16.732 1.37437C16.0759 1.52315 15.4199 1.67193 14.7638 1.8207C13.9634 2.00307 13.1631 2.18304 12.3628 2.36541C11.4856 2.56458 10.6085 2.76375 9.73141 2.96292C8.84499 3.16449 7.96089 3.36365 7.07447 3.56522C6.24854 3.75239 5.42262 3.93956 4.59668 4.12673C3.89872 4.28511 3.20075 4.44348 2.50278 4.60185C2.00024 4.71464 1.4977 4.82982 0.995166 4.9426C0.757857 4.99539 0.515894 5.04338 0.280911 5.10577C0.271605 5.10817 0.259972 5.11057 0.250666 5.11297C-0.0424812 5.18016 -0.0890124 5.62649 0.166909 5.77047C0.643855 6.03922 1.11847 6.30798 1.59542 6.57674C2.44229 7.05426 3.28916 7.53178 4.13603 8.00931C4.42452 8.17248 4.71534 8.33565 5.00383 8.49883C5.19229 8.60441 5.35282 8.72679 5.5785 8.61401C5.85303 8.47723 6.12291 8.32605 6.39512 8.18208C7.00468 7.86053 7.61424 7.53898 8.22612 7.21503C9.04507 6.7831 9.86635 6.34877 10.6853 5.91684C11.581 5.44412 12.4744 4.9714 13.3702 4.49867C14.2077 4.05714 15.043 3.61561 15.8805 3.17408C16.525 2.83334 17.1718 2.49259 17.8162 2.15185C18.1373 1.98148 18.4583 1.8135 18.7771 1.64313C18.791 1.63593 18.805 1.62873 18.8213 1.61913C18.9888 1.53035 19.0377 1.28799 18.9469 1.12721C18.8492 0.954441 18.6398 0.913648 18.4723 1.00243Z" fill="#F9FAFB"/>
<path d="M10.3661 11.0938C9.91009 11.3769 9.45408 11.6625 9.0004 11.9457C8.27451 12.3992 7.54863 12.8503 6.82274 13.3038C6.65523 13.407 6.49004 13.5126 6.32253 13.6158C6.162 13.7166 6.1015 13.9397 6.19689 14.1077C6.29228 14.2733 6.51331 14.3381 6.67384 14.2373C7.12985 13.9541 7.58585 13.6686 8.03953 13.3854C8.76542 12.9319 9.49131 12.4808 10.2172 12.0272C10.3847 11.9241 10.5499 11.8185 10.7174 11.7153C10.8779 11.6145 10.9384 11.3913 10.843 11.2234C10.75 11.0554 10.529 10.9906 10.3661 11.0938Z" fill="#F9FAFB"/>
<path d="M7.66097 9.55824C7.49113 10.0406 7.32129 10.5229 7.15378 11.0052C6.88622 11.7707 6.61634 12.5338 6.34879 13.2992C6.28597 13.4768 6.22548 13.652 6.16266 13.8295C6.38601 13.8295 6.61169 13.8295 6.83504 13.8295C6.71173 13.1985 6.58609 12.565 6.46279 11.9339C6.26503 10.926 6.06727 9.91818 5.86719 8.91034C5.82066 8.67758 5.77645 8.44722 5.72992 8.21445C5.69269 8.02488 5.474 7.9145 5.29951 7.96249C5.1064 8.01768 5.01799 8.21445 5.05522 8.40642C5.17852 9.03752 5.30416 9.67102 5.42747 10.3021C5.62522 11.31 5.82298 12.3178 6.02307 13.3256C6.0696 13.5584 6.1138 13.7888 6.16033 14.0215C6.18825 14.1703 6.35344 14.2927 6.49769 14.2855C6.66054 14.2783 6.7792 14.1775 6.83504 14.0215C7.00488 13.5392 7.17472 13.0569 7.34223 12.5746C7.60978 11.8091 7.87966 11.046 8.14722 10.2805C8.21004 10.103 8.27053 9.92778 8.33334 9.75021C8.39616 9.57263 8.26355 9.34947 8.08905 9.30628C7.89362 9.26068 7.72844 9.36867 7.66097 9.55824Z" fill="#F9FAFB"/>
</svg>
