<svg viewBox="0 0 48 48" xmlns="http://www.w3.org/2000/svg" xmlns:xlink="http://www.w3.org/1999/xlink" width="48" height="48">
<defs>



 <path fill="#5d6b82" id="i-434" d="M44,37c0-2.225-1.613-3.578-3.481-5.143C37.346,29.197,33,25.555,33,15c0-3.889-2.482-7.197-5.941-8.453 C27.638,5.852,28,4.971,28,3.998C28,1.793,26.206,0,24,0s-4,1.793-4,3.998c0,0.973,0.362,1.854,0.941,2.549 C17.482,7.803,15,11.111,15,15c0,10.555-4.346,14.197-7.519,16.857C5.613,33.422,4,34.775,4,37c0,3.408,7.397,4.594,15.109,4.906 C19.042,42.219,19,42.574,19,42.998C19,45.756,21.243,48,24,48s5-2.244,5-5.002c0-0.43-0.044-0.791-0.113-1.107 C35.486,41.592,44,40.521,44,37z M24,2c1.103,0,2,0.896,2,1.998C26,5.102,25.103,6,24,6c-1.104,0-2-0.898-2-2.002 C22,2.896,22.896,2,24,2z M24,46c-1.654,0-3-1.348-3-3.002c0-0.721,0.152-0.971,0.196-1.027C22.14,41.99,23.079,42,24,42 c0.807,0,1.759-0.01,2.8-0.035c0.033,0.041,0.2,0.279,0.2,1.033C27,44.652,25.654,46,24,46z M21,42v-0.035 c0.06,0.002,0.119,0.004,0.179,0.006C21.152,41.984,21.106,42,21,42z M27,42c-0.123,0-0.17-0.021-0.19-0.035 c0.063-0.002,0.127-0.004,0.19-0.006V42z M24,40c-12.416,0-18-1.754-18-3c0-1.232,0.999-2.129,2.766-3.609 C12.045,30.643,17,26.488,17,15c0-3.859,3.14-7,7-7c3.859,0,7,3.141,7,7c0,11.488,4.955,15.643,8.234,18.391 C41.001,34.871,42,35.768,42,37C42,38.227,35.59,40,24,40z"/> 
</defs>

<use x="0" y="0" xlink:href="#i-434"/>

</svg>