<svg width="22" height="23" viewBox="0 0 22 23" fill="none" xmlns="http://www.w3.org/2000/svg">
<path d="M20.9592 18.7597L20.959 18.7596C20.7769 19.0327 20.5253 19.1924 20.241 19.3309C19.6706 19.6088 18.8867 19.8025 17.9392 19.9586C16.6918 20.164 15.1443 20.2938 13.5051 20.3599C13.1248 21.373 12.1486 22.1 11.0105 22.1C9.87051 22.1 8.89507 21.3731 8.51578 20.3599C6.79643 20.2912 5.17939 20.1537 3.9023 19.9361C2.97835 19.7787 2.22477 19.5897 1.68078 19.3074L1.72683 19.2187L1.68078 19.3074C1.4099 19.1669 1.1566 18.9928 0.997933 18.6927C0.902937 18.5269 0.880417 18.3048 0.915916 18.0966C0.951672 17.8868 1.04908 17.6743 1.21403 17.5323M20.9592 18.7597L1.27943 17.608M20.9592 18.7597L20.9624 18.7541M20.9592 18.7597L20.9624 18.7541M1.21403 17.5323C1.21409 17.5323 1.21415 17.5322 1.21421 17.5322L1.27943 17.608M1.21403 17.5323C1.21399 17.5324 1.21395 17.5324 1.21391 17.5324L1.27943 17.608M1.21403 17.5323C3.91729 15.1882 5.06439 11.8226 5.06439 8.95814C5.06439 7.36149 5.55506 5.8555 6.5669 4.74484C7.25185 3.99298 8.1719 3.43308 9.29238 3.15278M1.27943 17.608C4.00808 15.2419 5.16439 11.8468 5.16439 8.95814C5.16439 7.38132 5.6489 5.90099 6.64083 4.81218C7.3273 4.05864 8.25583 3.5005 9.39238 3.23135M9.29238 3.15278V3.23135H9.39238M9.29238 3.15278C9.31793 3.14638 9.34358 3.14014 9.36934 3.13404L9.39238 3.23135M9.29238 3.15278V2.60498C9.29238 2.08018 9.50468 1.61781 9.84081 1.32193C10.1328 1.06489 10.4922 0.931467 10.8532 0.902107L9.39238 3.23135M20.9624 18.7541C21.074 18.5608 21.1302 18.3357 21.122 18.124C21.1137 17.9125 21.0405 17.7064 20.8833 17.5638L20.8813 17.562M20.9624 18.7541L20.8813 17.562M20.8813 17.562C18.1521 15.2166 16.9939 11.8353 16.9939 8.95814M20.8813 17.562L16.9939 8.95814M16.9939 8.95814C16.9939 7.36149 16.5032 5.8555 15.4914 4.74484M16.9939 8.95814L15.4914 4.74484M15.4914 4.74484C14.7989 3.98472 13.8656 3.42206 12.7286 3.14484M15.4914 4.74484L12.7286 3.14484M12.7286 3.14484V2.60498C12.7286 2.08057 12.5161 1.61777 12.1802 1.32194L12.1141 1.39698L12.1802 1.32194C11.8458 1.02745 11.421 0.901989 11.0105 0.901776C10.9997 0.901771 10.9864 0.901431 10.9718 0.901056C10.9358 0.900132 10.8915 0.898992 10.8532 0.902105L12.7286 3.14484ZM11.4142 2.19534C11.3191 2.11162 11.1703 2.05633 11.0104 2.05624C10.8476 2.05616 10.6997 2.10608 10.6068 2.18789C10.5574 2.23132 10.5191 2.27858 10.4921 2.34045C10.4649 2.40305 10.4468 2.48639 10.4468 2.60498V2.9737C10.6177 2.96095 10.7923 2.95365 10.9702 2.9524C10.971 2.9524 10.9718 2.95239 10.9725 2.95239L11.4142 2.19534ZM11.4142 2.19534C11.4645 2.23967 11.5026 2.28556 11.5292 2.34531C11.5561 2.40573 11.5741 2.4868 11.5741 2.60498V2.97396C11.3965 2.96085 11.2143 2.95246 11.028 2.95239L11.4142 2.19534ZM10.8839 20.4072C11.3136 20.4072 11.7419 20.4038 12.1684 20.3963C11.8912 20.73 11.4756 20.9455 11.0106 20.9455C10.5423 20.9455 10.128 20.7312 9.85192 20.3964C10.1945 20.4027 10.5381 20.4066 10.8837 20.4072H10.8839ZM7.4158 5.52081C8.19509 4.6654 9.3544 4.11386 10.9948 4.10686L11.0267 4.10685C12.6832 4.10711 13.8512 4.66014 14.6352 5.52081C15.421 6.38333 15.8395 7.59515 15.8395 8.95814C15.8395 12.0482 17.0362 15.6289 19.8754 18.2119C19.8368 18.2367 19.7883 18.2645 19.7285 18.2936C19.3526 18.4768 18.6483 18.6663 17.7502 18.8142C15.9578 19.1095 13.4201 19.2577 10.8915 19.2529C8.36283 19.2479 5.84405 19.0891 4.10008 18.792C3.2256 18.643 2.5446 18.4519 2.21295 18.2798C2.18772 18.2667 2.16572 18.254 2.14634 18.2419C5.01106 15.6566 6.21897 12.0611 6.21897 8.95814C6.21897 7.59471 6.63031 6.38306 7.4158 5.52081Z" fill="#FEFEFE" stroke="#FEFEFE" stroke-width="0.2"/>
</svg>
