<svg width="22" height="23" viewBox="0 0 22 23" fill="none" xmlns="http://www.w3.org/2000/svg">
<mask id="path-1-outside-1_18_6978" maskUnits="userSpaceOnUse" x="0" y="0" width="22" height="23" fill="black">
<rect fill="white" width="22" height="23"/>
<path fill-rule="evenodd" clip-rule="evenodd" d="M10.8614 1.00178C10.5192 1.0296 10.1808 1.15581 9.90689 1.39698C9.59377 1.67261 9.39238 2.10692 9.39238 2.60498V3.23135C8.25583 3.5005 7.3273 4.05864 6.64083 4.81218C5.6489 5.90099 5.16439 7.38132 5.16439 8.95814C5.16439 11.8468 4.00808 15.2419 1.27943 17.608C0.99335 17.8541 0.92365 18.3641 1.08553 18.6445C1.23001 18.9188 1.46214 19.0813 1.72683 19.2187C2.25618 19.4933 2.99665 19.6804 3.9191 19.8375C5.20686 20.057 6.84472 20.1949 8.58705 20.2626C8.93512 21.2708 9.8909 22 11.0105 22C12.1281 22 13.0847 21.2708 13.4339 20.2626C15.0959 20.1975 16.6642 20.0672 17.9229 19.8599C18.8683 19.7042 19.6404 19.5123 20.1972 19.241C20.4756 19.1053 20.7083 18.9553 20.8758 18.7041C21.0808 18.3491 21.0807 17.8779 20.8161 17.6378C18.0614 15.2705 16.8939 11.8596 16.8939 8.95814C16.8939 7.38132 16.4093 5.90099 15.4174 4.81218C14.7236 4.05057 13.7818 3.48977 12.6286 3.22389V2.60498C12.6286 2.10732 12.427 1.67257 12.1141 1.39698C11.8011 1.12141 11.4013 1.00198 11.0105 1.00178C10.9616 1.00175 10.9102 0.997791 10.8614 1.00178V1.00178ZM11.0105 1.95624C11.1912 1.95634 11.3645 2.01838 11.4803 2.12029C11.596 2.2222 11.6741 2.34841 11.6741 2.60498V3.08221C11.4635 3.06436 11.2472 3.05239 11.0254 3.05239C11.008 3.05143 10.9906 3.05143 10.9732 3.05239C10.7593 3.05382 10.5502 3.06413 10.3468 3.08221V2.60498C10.3468 2.34762 10.4252 2.21455 10.5407 2.11283C10.6562 2.01112 10.8298 1.95615 11.0105 1.95624ZM10.9957 4.00685C11.0057 4.00709 11.0155 4.00709 11.0255 4.00685C12.707 4.00685 13.9035 4.56913 14.7092 5.45346C15.5148 6.3378 15.9395 7.57525 15.9395 8.95814C15.9395 12.0571 17.1529 15.6524 20.0333 18.2195C19.9858 18.2608 19.903 18.3198 19.7723 18.3835C19.3827 18.5733 18.6664 18.7647 17.7664 18.9129C15.9665 19.2094 13.4227 19.3577 10.8913 19.3529C8.35989 19.3479 5.83495 19.189 4.08329 18.8906C3.20745 18.7413 2.51326 18.5483 2.16689 18.3686C2.07929 18.3231 2.02565 18.2811 1.98793 18.2493C4.8943 15.6802 6.11897 12.07 6.11897 8.95814C6.11897 7.57525 6.53626 6.3378 7.34188 5.45346C8.14261 4.57451 9.33037 4.01366 10.9957 4.00685V4.00685ZM9.65348 20.2924C10.062 20.301 10.4716 20.3065 10.8839 20.3072C11.3807 20.3072 11.8754 20.3027 12.3677 20.2924C12.0819 20.7411 11.5818 21.0455 11.0106 21.0455C10.4361 21.0455 9.93841 20.7432 9.65348 20.2924Z"/>
</mask>
<path fill-rule="evenodd" clip-rule="evenodd" d="M10.8614 1.00178C10.5192 1.0296 10.1808 1.15581 9.90689 1.39698C9.59377 1.67261 9.39238 2.10692 9.39238 2.60498V3.23135C8.25583 3.5005 7.3273 4.05864 6.64083 4.81218C5.6489 5.90099 5.16439 7.38132 5.16439 8.95814C5.16439 11.8468 4.00808 15.2419 1.27943 17.608C0.99335 17.8541 0.92365 18.3641 1.08553 18.6445C1.23001 18.9188 1.46214 19.0813 1.72683 19.2187C2.25618 19.4933 2.99665 19.6804 3.9191 19.8375C5.20686 20.057 6.84472 20.1949 8.58705 20.2626C8.93512 21.2708 9.8909 22 11.0105 22C12.1281 22 13.0847 21.2708 13.4339 20.2626C15.0959 20.1975 16.6642 20.0672 17.9229 19.8599C18.8683 19.7042 19.6404 19.5123 20.1972 19.241C20.4756 19.1053 20.7083 18.9553 20.8758 18.7041C21.0808 18.3491 21.0807 17.8779 20.8161 17.6378C18.0614 15.2705 16.8939 11.8596 16.8939 8.95814C16.8939 7.38132 16.4093 5.90099 15.4174 4.81218C14.7236 4.05057 13.7818 3.48977 12.6286 3.22389V2.60498C12.6286 2.10732 12.427 1.67257 12.1141 1.39698C11.8011 1.12141 11.4013 1.00198 11.0105 1.00178C10.9616 1.00175 10.9102 0.997791 10.8614 1.00178V1.00178ZM11.0105 1.95624C11.1912 1.95634 11.3645 2.01838 11.4803 2.12029C11.596 2.2222 11.6741 2.34841 11.6741 2.60498V3.08221C11.4635 3.06436 11.2472 3.05239 11.0254 3.05239C11.008 3.05143 10.9906 3.05143 10.9732 3.05239C10.7593 3.05382 10.5502 3.06413 10.3468 3.08221V2.60498C10.3468 2.34762 10.4252 2.21455 10.5407 2.11283C10.6562 2.01112 10.8298 1.95615 11.0105 1.95624ZM10.9957 4.00685C11.0057 4.00709 11.0155 4.00709 11.0255 4.00685C12.707 4.00685 13.9035 4.56913 14.7092 5.45346C15.5148 6.3378 15.9395 7.57525 15.9395 8.95814C15.9395 12.0571 17.1529 15.6524 20.0333 18.2195C19.9858 18.2608 19.903 18.3198 19.7723 18.3835C19.3827 18.5733 18.6664 18.7647 17.7664 18.9129C15.9665 19.2094 13.4227 19.3577 10.8913 19.3529C8.35989 19.3479 5.83495 19.189 4.08329 18.8906C3.20745 18.7413 2.51326 18.5483 2.16689 18.3686C2.07929 18.3231 2.02565 18.2811 1.98793 18.2493C4.8943 15.6802 6.11897 12.07 6.11897 8.95814C6.11897 7.57525 6.53626 6.3378 7.34188 5.45346C8.14261 4.57451 9.33037 4.01366 10.9957 4.00685V4.00685ZM9.65348 20.2924C10.062 20.301 10.4716 20.3065 10.8839 20.3072C11.3807 20.3072 11.8754 20.3027 12.3677 20.2924C12.0819 20.7411 11.5818 21.0455 11.0106 21.0455C10.4361 21.0455 9.93841 20.7432 9.65348 20.2924Z" fill="#A6AAB4"/>
<path fill-rule="evenodd" clip-rule="evenodd" d="M10.8614 1.00178C10.5192 1.0296 10.1808 1.15581 9.90689 1.39698C9.59377 1.67261 9.39238 2.10692 9.39238 2.60498V3.23135C8.25583 3.5005 7.3273 4.05864 6.64083 4.81218C5.6489 5.90099 5.16439 7.38132 5.16439 8.95814C5.16439 11.8468 4.00808 15.2419 1.27943 17.608C0.99335 17.8541 0.92365 18.3641 1.08553 18.6445C1.23001 18.9188 1.46214 19.0813 1.72683 19.2187C2.25618 19.4933 2.99665 19.6804 3.9191 19.8375C5.20686 20.057 6.84472 20.1949 8.58705 20.2626C8.93512 21.2708 9.8909 22 11.0105 22C12.1281 22 13.0847 21.2708 13.4339 20.2626C15.0959 20.1975 16.6642 20.0672 17.9229 19.8599C18.8683 19.7042 19.6404 19.5123 20.1972 19.241C20.4756 19.1053 20.7083 18.9553 20.8758 18.7041C21.0808 18.3491 21.0807 17.8779 20.8161 17.6378C18.0614 15.2705 16.8939 11.8596 16.8939 8.95814C16.8939 7.38132 16.4093 5.90099 15.4174 4.81218C14.7236 4.05057 13.7818 3.48977 12.6286 3.22389V2.60498C12.6286 2.10732 12.427 1.67257 12.1141 1.39698C11.8011 1.12141 11.4013 1.00198 11.0105 1.00178C10.9616 1.00175 10.9102 0.997791 10.8614 1.00178V1.00178ZM11.0105 1.95624C11.1912 1.95634 11.3645 2.01838 11.4803 2.12029C11.596 2.2222 11.6741 2.34841 11.6741 2.60498V3.08221C11.4635 3.06436 11.2472 3.05239 11.0254 3.05239C11.008 3.05143 10.9906 3.05143 10.9732 3.05239C10.7593 3.05382 10.5502 3.06413 10.3468 3.08221V2.60498C10.3468 2.34762 10.4252 2.21455 10.5407 2.11283C10.6562 2.01112 10.8298 1.95615 11.0105 1.95624ZM10.9957 4.00685C11.0057 4.00709 11.0155 4.00709 11.0255 4.00685C12.707 4.00685 13.9035 4.56913 14.7092 5.45346C15.5148 6.3378 15.9395 7.57525 15.9395 8.95814C15.9395 12.0571 17.1529 15.6524 20.0333 18.2195C19.9858 18.2608 19.903 18.3198 19.7723 18.3835C19.3827 18.5733 18.6664 18.7647 17.7664 18.9129C15.9665 19.2094 13.4227 19.3577 10.8913 19.3529C8.35989 19.3479 5.83495 19.189 4.08329 18.8906C3.20745 18.7413 2.51326 18.5483 2.16689 18.3686C2.07929 18.3231 2.02565 18.2811 1.98793 18.2493C4.8943 15.6802 6.11897 12.07 6.11897 8.95814C6.11897 7.57525 6.53626 6.3378 7.34188 5.45346C8.14261 4.57451 9.33037 4.01366 10.9957 4.00685V4.00685ZM9.65348 20.2924C10.062 20.301 10.4716 20.3065 10.8839 20.3072C11.3807 20.3072 11.8754 20.3027 12.3677 20.2924C12.0819 20.7411 11.5818 21.0455 11.0106 21.0455C10.4361 21.0455 9.93841 20.7432 9.65348 20.2924Z" stroke="#A6AAB4" stroke-width="0.4" mask="url(#path-1-outside-1_18_6978)"/>
</svg>
