<svg width="20" height="22" viewBox="0 0 20 22" fill="none" xmlns="http://www.w3.org/2000/svg">
<path d="M13.1223 12.2542C14.8303 11.1691 15.9697 9.2384 15.9697 7.04041C15.9697 3.65641 13.2699 0.9 9.94712 0.9C6.62437 0.9 3.92454 3.65641 3.92454 7.04041C3.92454 9.25509 5.08127 11.1989 6.81097 12.2791C3.3612 13.6048 0.9 17.0134 0.9 21V21.1H1H2.26913H2.36913V21C2.36913 16.6864 5.79471 13.1808 10 13.1808C14.2055 13.1808 17.6309 16.6864 17.6309 21V21.1H17.7309H19H19.1V21C19.1 16.9877 16.6073 13.5614 13.1223 12.2542ZM5.39366 7.04041C5.39366 4.47676 7.43824 2.39437 9.94712 2.39437C12.456 2.39437 14.5006 4.47676 14.5006 7.04041C14.5006 9.60405 12.456 11.6864 9.94712 11.6864C7.43824 11.6864 5.39366 9.60384 5.39366 7.04041Z" fill="#757F8C" stroke="#757F8C" stroke-width="0.2"/>
</svg>
