<svg width="20" height="16" viewBox="0 0 20 16" fill="none" xmlns="http://www.w3.org/2000/svg">
<path d="M20 12.9996C20 13.5889 19.7659 14.1542 19.3491 14.5709C18.9324 14.9877 18.3671 15.2218 17.7778 15.2218H2.22222C1.63285 15.2218 1.06762 14.9877 0.650874 14.5709C0.234126 14.1542 0 13.5889 0 12.9996V10.7773H20V12.9996Z" fill="#CE2028"/>
<path d="M0 5.22179H20V10.7773H0V5.22179Z" fill="#22408C"/>
<path d="M17.7778 0.777344H2.22222C1.63285 0.777344 1.06762 1.01147 0.650874 1.42822C0.234126 1.84496 0 2.4102 0 2.99957V5.22179H20V2.99957C20 2.4102 19.7659 1.84496 19.3491 1.42822C18.9324 1.01147 18.3671 0.777344 17.7778 0.777344Z" fill="#EEEEEE"/>
</svg>
