<svg width="20" height="20" viewBox="0 0 20 20" fill="none" xmlns="http://www.w3.org/2000/svg">
<path d="M18.9766 12.0994L17.5728 12.3375C17.4265 12.8096 17.2385 13.265 17.0087 13.6995L17.836 14.8569C18.1869 15.3499 18.1326 16.0225 17.7023 16.4487L16.4572 17.6937C16.2233 17.9277 15.9141 18.0572 15.584 18.0572C15.325 18.0572 15.0785 17.9778 14.8696 17.8274L13.7081 17.0002C13.2569 17.2383 12.7847 17.4347 12.2959 17.5809L12.062 18.968C11.9617 19.5655 11.4478 20 10.842 20H9.08302C8.47721 20 7.96331 19.5655 7.86304 18.968L7.62071 17.5475C7.15277 17.4013 6.69737 17.2091 6.26286 16.9751L5.1139 17.8024C4.905 17.9528 4.65432 18.0322 4.39528 18.0322C4.06522 18.0322 3.75186 17.9026 3.52207 17.6687L2.27284 16.4236C1.84669 15.9975 1.78819 15.3248 2.13915 14.8318L2.97475 13.6578C2.74496 13.2191 2.56113 12.7637 2.41908 12.2915L1.03197 12.0576C0.434514 11.9573 0 11.4434 0 10.8376V9.07865C0 8.47284 0.434514 7.95894 1.03197 7.85867L2.4525 7.61634C2.59873 7.1484 2.79092 6.693 3.02489 6.25848L2.20182 5.11371C1.85086 4.6207 1.90518 3.94804 2.33551 3.52188L3.58057 2.27683C3.81453 2.04286 4.12371 1.91334 4.45377 1.91334C4.71281 1.91334 4.95931 1.99272 5.16821 2.14313L6.34224 2.97874C6.76422 2.7573 7.20709 2.57765 7.66249 2.43559L7.89646 1.03178C7.99674 0.43432 8.51063 -0.000192642 9.11645 -0.000192642H10.8796C11.4854 -0.000192642 11.9993 0.43432 12.0996 1.03178L12.3377 2.43559C12.8098 2.58182 13.2652 2.76983 13.6997 2.99963L14.857 2.17238C15.0659 2.02197 15.3166 1.94259 15.5757 1.94259C15.9057 1.94259 16.2149 2.07211 16.4489 2.30607L17.6939 3.55113C18.1201 3.97728 18.1786 4.64994 17.8276 5.14295L17.0004 6.30444C17.2302 6.74313 17.4224 7.19854 17.5644 7.66648L18.9682 7.90045C19.5657 8.00072 20.0002 8.51462 20.0002 9.12043V10.8794C20.0086 11.4852 19.574 11.9991 18.9766 12.0994ZM18.8805 9.12043C18.8805 9.06612 18.8429 9.02016 18.7886 9.0118L17.0338 8.71934C16.8124 8.68174 16.6369 8.51879 16.5826 8.30571C16.4238 7.69155 16.1815 7.10244 15.8556 6.55512C15.7428 6.36294 15.7511 6.12479 15.8807 5.94095L16.9126 4.487C16.9419 4.44522 16.9377 4.38255 16.9001 4.34495L15.6551 3.0999C15.6258 3.07065 15.5966 3.06647 15.5757 3.06647C15.5506 3.06647 15.5297 3.07483 15.513 3.08736L14.0632 4.11934C13.8836 4.24885 13.6412 4.25721 13.4491 4.1444C12.9017 3.81852 12.3126 3.57619 11.6985 3.41743C11.4812 3.36311 11.3183 3.18346 11.2848 2.9662L10.9882 1.21143C10.9798 1.15712 10.9339 1.11952 10.8796 1.11952H9.12062C9.06631 1.11952 9.02035 1.15712 9.01199 1.21143L8.71953 2.9662C8.68193 3.18764 8.51899 3.36311 8.30591 3.41743C7.70845 3.57202 7.13188 3.81016 6.59292 4.11934C6.50518 4.16947 6.40491 4.19454 6.30881 4.19454C6.19601 4.19454 6.07902 4.16112 5.98293 4.09009L4.52062 3.04976C4.49973 3.03723 4.47884 3.02887 4.45795 3.02887C4.44124 3.02887 4.40781 3.03305 4.37857 3.0623L3.13352 4.30735C3.09591 4.34495 3.09174 4.40344 3.12098 4.4494L4.14878 5.89082C4.2783 6.07465 4.28665 6.31698 4.17384 6.50917C3.84796 7.05231 3.59728 7.64141 3.43851 8.25558C3.38002 8.46866 3.20454 8.6316 2.98729 8.6692L1.21998 8.97002C1.16567 8.97838 1.12807 9.02433 1.12807 9.07865V10.8376C1.12807 10.8919 1.16567 10.9379 1.21998 10.9462L2.96222 11.2387C3.18365 11.2763 3.36331 11.4392 3.41762 11.6565C3.57221 12.2707 3.81036 12.8639 4.13206 13.4113C4.24487 13.6034 4.23234 13.8416 4.10282 14.0213L3.06249 15.4836C3.03324 15.5253 3.03742 15.588 3.07502 15.6256L4.32008 16.8707C4.34932 16.8999 4.37857 16.9041 4.39946 16.9041C4.42453 16.9041 4.44542 16.8957 4.46213 16.8832L5.90355 15.8554C6.08738 15.7259 6.3297 15.7175 6.52189 15.8303C7.06504 16.1562 7.65414 16.4069 8.26831 16.5657C8.48139 16.6242 8.64433 16.7996 8.68193 17.0169L8.98275 18.7842C8.99111 18.8385 9.03706 18.8761 9.09138 18.8761H10.8503C10.9046 18.8761 10.9506 18.8385 10.959 18.7842L11.2514 17.042C11.289 16.8205 11.452 16.6409 11.6692 16.5866C12.3001 16.4278 12.9017 16.1813 13.4616 15.8512C13.6538 15.7384 13.8919 15.7468 14.0758 15.8763L15.5172 16.9124C15.5381 16.925 15.559 16.9333 15.5798 16.9333C15.5966 16.9333 15.63 16.9292 15.6592 16.8999L16.9043 15.6549C16.9419 15.6173 16.9461 15.5588 16.9168 15.5128L15.8848 14.063C15.7553 13.8834 15.747 13.6411 15.8598 13.4489C16.1857 12.9015 16.428 12.3124 16.5868 11.6983C16.6411 11.481 16.8207 11.3181 17.038 11.2846L18.7927 10.988C18.8471 10.9796 18.8847 10.9337 18.8847 10.8794V9.12043H18.8805Z" fill="#FEFEFE"/>
<path d="M10.0024 14.318C7.62095 14.318 5.68652 12.3836 5.68652 10.0021C5.68652 7.62065 7.62095 5.68623 10.0024 5.68623C12.3839 5.68623 14.3183 7.62065 14.3183 10.0021C14.3183 12.3836 12.3839 14.318 10.0024 14.318ZM10.0024 6.81429C8.24347 6.81429 6.81459 8.24318 6.81459 10.0021C6.81459 11.7611 8.24347 13.19 10.0024 13.19C11.7614 13.19 13.1903 11.7611 13.1903 10.0021C13.1903 8.24318 11.7614 6.81429 10.0024 6.81429Z" fill="#FEFEFE"/>
</svg>
