<svg width="20" height="18" viewBox="0 0 20 18" fill="none" xmlns="http://www.w3.org/2000/svg">
<path d="M18.75 7.71429C19.0951 7.71429 19.3896 7.83984 19.6338 8.09096C19.8779 8.34208 20 8.64509 20 9C20 9.35491 19.8779 9.65792 19.6338 9.90904C19.3896 10.1602 19.0951 10.2857 18.75 10.2857H18.6035L17.4805 16.9353C17.4284 17.2433 17.2852 17.4978 17.0508 17.6987C16.8164 17.8996 16.5495 18 16.25 18H3.75C3.45052 18 3.18359 17.8996 2.94922 17.6987C2.71484 17.4978 2.57161 17.2433 2.51953 16.9353L1.39648 10.2857H1.25C0.904948 10.2857 0.610352 10.1602 0.366211 9.90904C0.12207 9.65792 0 9.35491 0 9C0 8.64509 0.12207 8.34208 0.366211 8.09096C0.610352 7.83984 0.904948 7.71429 1.25 7.71429H18.75ZM4.73633 15.75C4.9056 15.7366 5.0472 15.6613 5.16113 15.524C5.27506 15.3867 5.32552 15.231 5.3125 15.0569L5 10.8783C4.98698 10.7042 4.91374 10.5586 4.78027 10.4414C4.64681 10.3242 4.49544 10.2723 4.32617 10.2857C4.1569 10.2991 4.0153 10.3744 3.90137 10.5117C3.78743 10.649 3.73698 10.8047 3.75 10.9788L4.0625 15.1574C4.07552 15.3248 4.14225 15.4654 4.2627 15.5792C4.38314 15.6931 4.52474 15.75 4.6875 15.75H4.73633ZM8.75 15.1071V10.9286C8.75 10.7545 8.68815 10.6038 8.56445 10.4766C8.44075 10.3493 8.29427 10.2857 8.125 10.2857C7.95573 10.2857 7.80924 10.3493 7.68555 10.4766C7.56185 10.6038 7.5 10.7545 7.5 10.9286V15.1071C7.5 15.2812 7.56185 15.4319 7.68555 15.5592C7.80924 15.6864 7.95573 15.75 8.125 15.75C8.29427 15.75 8.44075 15.6864 8.56445 15.5592C8.68815 15.4319 8.75 15.2812 8.75 15.1071ZM12.5 15.1071V10.9286C12.5 10.7545 12.4382 10.6038 12.3145 10.4766C12.1908 10.3493 12.0443 10.2857 11.875 10.2857C11.7057 10.2857 11.5592 10.3493 11.4355 10.4766C11.3118 10.6038 11.25 10.7545 11.25 10.9286V15.1071C11.25 15.2812 11.3118 15.4319 11.4355 15.5592C11.5592 15.6864 11.7057 15.75 11.875 15.75C12.0443 15.75 12.1908 15.6864 12.3145 15.5592C12.4382 15.4319 12.5 15.2812 12.5 15.1071ZM15.9375 15.1574L16.25 10.9788C16.263 10.8047 16.2126 10.649 16.0986 10.5117C15.9847 10.3744 15.8431 10.2991 15.6738 10.2857C15.5046 10.2723 15.3532 10.3242 15.2197 10.4414C15.0863 10.5586 15.013 10.7042 15 10.8783L14.6875 15.0569C14.6745 15.231 14.7249 15.3867 14.8389 15.524C14.9528 15.6613 15.0944 15.7366 15.2637 15.75H15.3125C15.4753 15.75 15.6169 15.6931 15.7373 15.5792C15.8577 15.4654 15.9245 15.3248 15.9375 15.1574ZM4.64844 2.93304L3.74023 7.07143H2.45117L3.4375 2.64174C3.5612 2.05246 3.85091 1.57199 4.30664 1.20033C4.76237 0.828683 5.2832 0.642857 5.86914 0.642857H7.5C7.5 0.46875 7.56185 0.31808 7.68555 0.190848C7.80924 0.0636161 7.95573 0 8.125 0H11.875C12.0443 0 12.1908 0.0636161 12.3145 0.190848C12.4382 0.31808 12.5 0.46875 12.5 0.642857H14.1309C14.7168 0.642857 15.2376 0.828683 15.6934 1.20033C16.1491 1.57199 16.4388 2.05246 16.5625 2.64174L17.5488 7.07143H16.2598L15.3516 2.93304C15.2799 2.63839 15.1318 2.39732 14.9072 2.20982C14.6826 2.02232 14.4238 1.92857 14.1309 1.92857H12.5C12.5 2.10268 12.4382 2.25335 12.3145 2.38058C12.1908 2.50781 12.0443 2.57143 11.875 2.57143H8.125C7.95573 2.57143 7.80924 2.50781 7.68555 2.38058C7.56185 2.25335 7.5 2.10268 7.5 1.92857H5.86914C5.57617 1.92857 5.31738 2.02232 5.09277 2.20982C4.86816 2.39732 4.72005 2.63839 4.64844 2.93304Z" fill="white"/>
</svg>
