<svg width="34" height="21" viewBox="0 0 34 21" fill="none" xmlns="http://www.w3.org/2000/svg">
<path fill-rule="evenodd" clip-rule="evenodd" d="M10.5713 0.0614348C11.7313 -0.00523187 12.89 0.000101467 14.05 0.000101467C14.058 0.000101467 19.928 0.000101467 19.928 0.000101467C21.1107 0.000101467 22.2693 -0.00523187 23.4287 0.0614348C24.4827 0.121435 25.5093 0.249435 26.5313 0.535435C28.6827 1.13677 30.5613 2.39277 31.9193 4.17344C33.2693 5.94277 34 8.10877 34 10.3328C34 12.5594 33.2693 14.7241 31.9193 16.4934C30.5613 18.2734 28.6827 19.5301 26.5313 20.1314C25.5093 20.4174 24.4827 20.5448 23.4287 20.6054C22.2693 20.6721 21.1107 20.6661 19.9507 20.6661C19.9427 20.6661 14.0713 20.6668 14.0713 20.6668C12.89 20.6661 11.7313 20.6721 10.5713 20.6054C9.518 20.5448 8.49133 20.4174 7.46933 20.1314C5.318 19.5301 3.43933 18.2734 2.08133 16.4934C0.731333 14.7241 0 12.5594 0 10.3334C0 8.10877 0.731333 5.94277 2.08133 4.17344C3.43933 2.39277 5.318 1.13677 7.46933 0.535435C8.49133 0.249435 9.518 0.121435 10.5713 0.0614348Z" fill="#787880" fill-opacity="0.16"/>
<mask id="mask0_665_404" style="mask-type:alpha" maskUnits="userSpaceOnUse" x="0" y="0" width="34" height="21">
<path fill-rule="evenodd" clip-rule="evenodd" d="M10.5713 0.0614348C11.7313 -0.00523187 12.89 0.000101467 14.05 0.000101467C14.058 0.000101467 19.928 0.000101467 19.928 0.000101467C21.1107 0.000101467 22.2693 -0.00523187 23.4287 0.0614348C24.4827 0.121435 25.5093 0.249435 26.5313 0.535435C28.6827 1.13677 30.5613 2.39277 31.9193 4.17344C33.2693 5.94277 34 8.10877 34 10.3328C34 12.5594 33.2693 14.7241 31.9193 16.4934C30.5613 18.2734 28.6827 19.5301 26.5313 20.1314C25.5093 20.4174 24.4827 20.5448 23.4287 20.6054C22.2693 20.6721 21.1107 20.6661 19.9507 20.6661C19.9427 20.6661 14.0713 20.6668 14.0713 20.6668C12.89 20.6661 11.7313 20.6721 10.5713 20.6054C9.518 20.5448 8.49133 20.4174 7.46933 20.1314C5.318 19.5301 3.43933 18.2734 2.08133 16.4934C0.731333 14.7241 0 12.5594 0 10.3334C0 8.10877 0.731333 5.94277 2.08133 4.17344C3.43933 2.39277 5.318 1.13677 7.46933 0.535435C8.49133 0.249435 9.518 0.121435 10.5713 0.0614348Z" fill="white"/>
</mask>
<g mask="url(#mask0_665_404)">
<g filter="url(#filter0_dd_665_404)">
<circle cx="10.333" cy="10.3333" r="9" fill="white"/>
<circle cx="10.333" cy="10.3333" r="9.16667" stroke="black" stroke-opacity="0.04" stroke-width="0.333333"/>
</g>
</g>
<defs>
<filter id="filter0_dd_665_404" x="-4.33333" y="-2.33333" width="29.3327" height="29.3332" filterUnits="userSpaceOnUse" color-interpolation-filters="sRGB">
<feFlood flood-opacity="0" result="BackgroundImageFix"/>
<feColorMatrix in="SourceAlpha" type="matrix" values="0 0 0 0 0 0 0 0 0 0 0 0 0 0 0 0 0 0 127 0" result="hardAlpha"/>
<feOffset dy="2"/>
<feGaussianBlur stdDeviation="0.333333"/>
<feColorMatrix type="matrix" values="0 0 0 0 0 0 0 0 0 0 0 0 0 0 0 0 0 0 0.06 0"/>
<feBlend mode="normal" in2="BackgroundImageFix" result="effect1_dropShadow_665_404"/>
<feColorMatrix in="SourceAlpha" type="matrix" values="0 0 0 0 0 0 0 0 0 0 0 0 0 0 0 0 0 0 127 0" result="hardAlpha"/>
<feOffset dy="2"/>
<feGaussianBlur stdDeviation="2.66667"/>
<feColorMatrix type="matrix" values="0 0 0 0 0 0 0 0 0 0 0 0 0 0 0 0 0 0 0.15 0"/>
<feBlend mode="normal" in2="effect1_dropShadow_665_404" result="effect2_dropShadow_665_404"/>
<feBlend mode="normal" in="SourceGraphic" in2="effect2_dropShadow_665_404" result="shape"/>
</filter>
</defs>
</svg>
