<svg width="34" height="21" viewBox="0 0 34 21" fill="none" xmlns="http://www.w3.org/2000/svg">
<path fill-rule="evenodd" clip-rule="evenodd" d="M23.4287 20.6046C22.2687 20.6712 21.11 20.6659 19.95 20.6659C19.942 20.6659 14.072 20.6659 14.072 20.6659C12.8893 20.6659 11.7307 20.6712 10.5713 20.6046C9.51733 20.5446 8.49067 20.4166 7.46867 20.1306C5.31733 19.5292 3.43867 18.2732 2.08067 16.4926C0.730664 14.7232 7.08891e-07 12.5572 9.03319e-07 10.3332C1.09798e-06 8.10658 0.730665 5.94191 2.08067 4.17258C3.43867 2.39258 5.31733 1.13591 7.46867 0.534578C8.49067 0.248577 9.51733 0.121244 10.5713 0.0605792C11.7307 -0.0060883 12.8893 -8.95836e-05 14.0493 -8.94822e-05C14.0573 -8.94815e-05 19.9287 -0.000754633 19.9287 -0.000754633C21.11 -8.69576e-05 22.2687 -0.00608738 23.4287 0.0605803C24.482 0.121246 25.5087 0.248578 26.5307 0.53458C28.682 1.13591 30.5607 2.39258 31.9187 4.17258C33.2687 5.94191 34 8.10658 34 10.3326C34 12.5572 33.2687 14.7232 31.9187 16.4926C30.5607 18.2732 28.682 19.5292 26.5307 20.1306C25.5087 20.4166 24.482 20.5446 23.4287 20.6046Z" fill="#EF3672"/>
<mask id="mask0_701_3382" style="mask-type:alpha" maskUnits="userSpaceOnUse" x="0" y="-1" width="34" height="22">
<path fill-rule="evenodd" clip-rule="evenodd" d="M23.4287 20.6046C22.2687 20.6712 21.11 20.6659 19.95 20.6659C19.942 20.6659 14.072 20.6659 14.072 20.6659C12.8893 20.6659 11.7307 20.6712 10.5713 20.6046C9.51733 20.5446 8.49067 20.4166 7.46867 20.1306C5.31733 19.5292 3.43867 18.2732 2.08067 16.4926C0.730664 14.7232 7.08891e-07 12.5572 9.03319e-07 10.3332C1.09798e-06 8.10658 0.730665 5.94191 2.08067 4.17258C3.43867 2.39258 5.31733 1.13591 7.46867 0.534578C8.49067 0.248577 9.51733 0.121244 10.5713 0.0605792C11.7307 -0.0060883 12.8893 -8.95836e-05 14.0493 -8.94822e-05C14.0573 -8.94815e-05 19.9287 -0.000754633 19.9287 -0.000754633C21.11 -8.69576e-05 22.2687 -0.00608738 23.4287 0.0605803C24.482 0.121246 25.5087 0.248578 26.5307 0.53458C28.682 1.13591 30.5607 2.39258 31.9187 4.17258C33.2687 5.94191 34 8.10658 34 10.3326C34 12.5572 33.2687 14.7232 31.9187 16.4926C30.5607 18.2732 28.682 19.5292 26.5307 20.1306C25.5087 20.4166 24.482 20.5446 23.4287 20.6046Z" fill="white"/>
</mask>
<g mask="url(#mask0_701_3382)">
<g filter="url(#filter0_dd_701_3382)">
<circle cx="23.667" cy="10.3328" r="9" transform="rotate(-180 23.667 10.3328)" fill="white"/>
<circle cx="23.667" cy="10.3328" r="9.16667" transform="rotate(-180 23.667 10.3328)" stroke="white" stroke-opacity="0.04" stroke-width="0.333333"/>
</g>
</g>
<defs>
<filter id="filter0_dd_701_3382" x="9.00065" y="-2.33382" width="29.3327" height="29.3332" filterUnits="userSpaceOnUse" color-interpolation-filters="sRGB">
<feFlood flood-opacity="0" result="BackgroundImageFix"/>
<feColorMatrix in="SourceAlpha" type="matrix" values="0 0 0 0 0 0 0 0 0 0 0 0 0 0 0 0 0 0 127 0" result="hardAlpha"/>
<feOffset dy="2"/>
<feGaussianBlur stdDeviation="0.333333"/>
<feColorMatrix type="matrix" values="0 0 0 0 0 0 0 0 0 0 0 0 0 0 0 0 0 0 0.06 0"/>
<feBlend mode="normal" in2="BackgroundImageFix" result="effect1_dropShadow_701_3382"/>
<feColorMatrix in="SourceAlpha" type="matrix" values="0 0 0 0 0 0 0 0 0 0 0 0 0 0 0 0 0 0 127 0" result="hardAlpha"/>
<feOffset dy="2"/>
<feGaussianBlur stdDeviation="2.66667"/>
<feColorMatrix type="matrix" values="0 0 0 0 0 0 0 0 0 0 0 0 0 0 0 0 0 0 0.15 0"/>
<feBlend mode="normal" in2="effect1_dropShadow_701_3382" result="effect2_dropShadow_701_3382"/>
<feBlend mode="normal" in="SourceGraphic" in2="effect2_dropShadow_701_3382" result="shape"/>
</filter>
</defs>
</svg>
