<svg width="20" height="16" viewBox="0 0 20 16" fill="none" xmlns="http://www.w3.org/2000/svg">
<path d="M20 12.9996C20 13.5889 19.7659 14.1542 19.3491 14.5709C18.9324 14.9877 18.3671 15.2218 17.7778 15.2218H2.22222C1.63285 15.2218 1.06762 14.9877 0.650874 14.5709C0.234126 14.1542 0 13.5889 0 12.9996V2.99957C0 2.4102 0.234126 1.84496 0.650874 1.42822C1.06762 1.01147 1.63285 0.777344 2.22222 0.777344H17.7778C18.3671 0.777344 18.9324 1.01147 19.3491 1.42822C19.7659 1.84496 20 2.4102 20 2.99957V12.9996Z" fill="#E30917"/>
<path d="M8.88889 11.3329C8.00483 11.3329 7.15699 10.9817 6.53187 10.3566C5.90675 9.73147 5.55556 8.88362 5.55556 7.99957C5.55556 7.11551 5.90675 6.26766 6.53187 5.64254C7.15699 5.01742 8.00483 4.66623 8.88889 4.66623C9.61667 4.66623 10.2889 4.90234 10.8372 5.29845C10.4549 4.86359 9.9843 4.51522 9.45674 4.27659C8.92917 4.03795 8.3568 3.91454 7.77778 3.91457C6.69437 3.91457 5.65533 4.34495 4.88925 5.11103C4.12316 5.87712 3.69278 6.91616 3.69278 7.99957C3.6927 8.53606 3.79831 9.06732 4.00357 9.563C4.20883 10.0587 4.50972 10.5091 4.88905 10.8885C5.26838 11.2678 5.71874 11.5688 6.21439 11.7741C6.71004 11.9794 7.24128 12.0851 7.77778 12.0851C8.99722 12.0851 10.0889 11.5479 10.8372 10.7007C10.2709 11.1119 9.58881 11.3333 8.88889 11.3329ZM11.0628 8.12734L12.4183 8.43957L12.5406 9.82457L13.2561 8.63234L14.6117 8.94401L13.6983 7.89512L14.4133 6.70234L13.1339 7.24679L12.2206 6.19734L12.3428 7.5829L11.0628 8.12734Z" fill="#EEEEEE"/>
</svg>
