<svg width="20" height="16" viewBox="0 0 20 16" fill="none" xmlns="http://www.w3.org/2000/svg">
<path d="M0 2.99957V5.22179H20V2.99957C20 2.4102 19.7659 1.84496 19.3491 1.42822C18.9324 1.01147 18.3671 0.777344 17.7778 0.777344H2.22222C1.63285 0.777344 1.06762 1.01147 0.650874 1.42822C0.234126 1.84496 0 2.4102 0 2.99957Z" fill="#0099B5"/>
<path d="M20 12.9996V10.7773H0V12.9996C0 13.5889 0.234126 14.1542 0.650874 14.5709C1.06762 14.9877 1.63285 15.2218 2.22222 15.2218H17.7778C18.3671 15.2218 18.9324 14.9877 19.3491 14.5709C19.7659 14.1542 20 13.5889 20 12.9996Z" fill="#1EB53A"/>
<path d="M0 5.22179H20V6.05512H0V5.22179ZM0 9.94401H20V10.7773H0V9.94401Z" fill="#CE1126"/>
<path d="M0 9.94401H20V6.05512H0V9.94401Z" fill="#EEEEEE"/>
<path d="M2.33333 3.08845C2.33338 2.67887 2.47847 2.28253 2.74288 1.96972C3.00728 1.6569 3.37392 1.44783 3.77778 1.37957C3.52916 1.33736 3.27433 1.34992 3.03106 1.41635C2.7878 1.48279 2.56196 1.6015 2.3693 1.76421C2.17664 1.92692 2.02181 2.12971 1.9156 2.35843C1.80939 2.58714 1.75437 2.83628 1.75437 3.08845C1.75437 3.34063 1.80939 3.58977 1.9156 3.81848C2.02181 4.0472 2.17664 4.24999 2.3693 4.4127C2.56196 4.57541 2.7878 4.69412 3.03106 4.76056C3.27433 4.82699 3.52916 4.83955 3.77778 4.79734C3.37392 4.72908 3.00728 4.52001 2.74288 4.20719C2.47847 3.89438 2.33338 3.49804 2.33333 3.08845ZM4.935 4.3679L4.85722 4.12845L4.77945 4.3679H4.52722L4.73111 4.51623L4.65333 4.75568L4.85722 4.60734L5.06056 4.75568L4.98278 4.51623L5.18667 4.3679H4.935ZM6.43611 4.3679L6.35834 4.12845L6.28056 4.3679H6.02889L6.23278 4.51623L6.155 4.75568L6.35834 4.60734L6.56222 4.75568L6.48445 4.51623L6.68833 4.3679H6.43611ZM6.35834 2.74179L6.28056 2.98123H6.02889L6.23278 3.12957L6.155 3.36901L6.35834 3.22068L6.56222 3.36901L6.48445 3.12957L6.68833 2.98123H6.43611L6.35834 2.74179ZM7.93778 4.3679L7.86 4.12845L7.78222 4.3679H7.53056L7.73389 4.51623L7.65611 4.75568L7.86 4.60734L8.06389 4.75568L7.98611 4.51623L8.18945 4.3679H7.93778ZM7.86 2.74179L7.78222 2.98123H7.53056L7.73389 3.12957L7.65611 3.36901L7.86 3.22068L8.06389 3.36901L7.98611 3.12957L8.18945 2.98123H7.93778L7.86 2.74179ZM7.86 1.35512L7.78222 1.59457H7.53056L7.73389 1.7429L7.65611 1.98234L7.86 1.83401L8.06389 1.98234L7.98611 1.7429L8.18945 1.59457H7.93778L7.86 1.35512ZM9.43945 4.3679L9.36167 4.12845L9.28389 4.3679H9.03167L9.23556 4.51623L9.15778 4.75568L9.36167 4.60734L9.565 4.75568L9.48722 4.51623L9.69111 4.3679H9.43945ZM9.36167 2.74179L9.28389 2.98123H9.03167L9.23556 3.12957L9.15778 3.36901L9.36167 3.22068L9.565 3.36901L9.48722 3.12957L9.69111 2.98123H9.43945L9.36167 2.74179ZM9.36167 1.35512L9.28389 1.59457H9.03167L9.23556 1.7429L9.15778 1.98234L9.36167 1.83401L9.565 1.98234L9.48722 1.7429L9.69111 1.59457H9.43945L9.36167 1.35512ZM10.9406 4.3679L10.8628 4.12845L10.785 4.3679H10.5333L10.7372 4.51623L10.6594 4.75568L10.8628 4.60734L11.0667 4.75568L10.9889 4.51623L11.1928 4.3679H10.9406ZM10.8628 2.74179L10.785 2.98123H10.5333L10.7372 3.12957L10.6594 3.36901L10.8628 3.22068L11.0667 3.36901L10.9889 3.12957L11.1928 2.98123H10.9406L10.8628 2.74179ZM10.8628 1.35512L10.785 1.59457H10.5333L10.7372 1.7429L10.6594 1.98234L10.8628 1.83401L11.0667 1.98234L10.9889 1.7429L11.1928 1.59457H10.9406L10.8628 1.35512Z" fill="white"/>
</svg>
