<svg width="20" height="20" viewBox="0 0 20 20" fill="none" xmlns="http://www.w3.org/2000/svg">
<path d="M10 19C14.9706 19 19 14.9706 19 10C19 5.02944 14.9706 1 10 1C5.02944 1 1 5.02944 1 10C1 14.9706 5.02944 19 10 19Z" stroke="#FEFEFE" stroke-width="1.5" stroke-linecap="round" stroke-linejoin="round"/>
<path fill-rule="evenodd" clip-rule="evenodd" d="M10.4037 7.57461C10.5609 7.48284 10.6842 7.34009 10.7543 7.16863C10.8243 6.99718 10.8373 6.80668 10.7911 6.62685C10.7449 6.44703 10.6421 6.28801 10.4989 6.17461C10.3556 6.06121 10.1799 5.99981 9.99921 6C9.81849 6.00019 9.64291 6.06195 9.49988 6.17565C9.35685 6.28935 9.25442 6.44859 9.20858 6.62851C9.16273 6.80843 9.17606 6.9989 9.24647 7.17021C9.31688 7.34152 9.44041 7.48401 9.59779 7.57545L9.5937 7.58303C9.32573 8.15862 8.95343 8.98306 8.37863 9.29254C7.90652 9.54644 7.22903 9.41886 6.72582 9.3237C6.71774 9.20593 6.67776 9.09285 6.61041 8.99729C6.54305 8.90172 6.45102 8.8275 6.34476 8.78304C6.23849 8.73859 6.12225 8.72567 6.00922 8.74577C5.89618 8.76586 5.79088 8.81816 5.70526 8.89673C5.61965 8.9753 5.55714 9.077 5.52484 9.19028C5.49253 9.30356 5.49173 9.42389 5.52251 9.53762C5.55328 9.65135 5.61442 9.75392 5.69897 9.8337C5.78353 9.91348 5.88811 9.96727 6.00087 9.98897L7.20693 13.1932C7.29638 13.4308 7.45352 13.635 7.65773 13.7789C7.86195 13.9229 8.10369 14 8.35122 14H11.6487C11.8962 14 12.1379 13.9229 12.3422 13.7789C12.5464 13.635 12.7035 13.4308 12.793 13.1932L13.9986 9.98897C14.1107 9.96751 14.2147 9.91436 14.299 9.83548C14.3834 9.7566 14.4447 9.6551 14.4762 9.54236C14.5076 9.42962 14.5079 9.31009 14.4771 9.19717C14.4463 9.08425 14.3855 8.98239 14.3016 8.90302C14.2177 8.82365 14.114 8.76989 14.002 8.74778C13.8901 8.72566 13.7744 8.73606 13.6679 8.77781C13.5614 8.81956 13.4683 8.89101 13.399 8.98416C13.3298 9.0773 13.2871 9.18846 13.2757 9.30517C12.7606 9.3738 12.0966 9.46138 11.6213 9.2058C11.0579 8.90264 10.6803 8.13504 10.4037 7.57461ZM10.0102 8.57126C10.3244 9.0959 10.7012 9.66055 11.2424 9.95234C11.7853 10.2441 12.4534 10.2294 13.0507 10.1768L12.03 12.8888C12.0002 12.968 11.9478 13.0361 11.8798 13.0841C11.8117 13.1321 11.7312 13.1578 11.6487 13.1579H8.35122C8.26872 13.1578 8.18816 13.1321 8.12011 13.0841C8.05206 13.0361 7.99971 12.968 7.96993 12.8888L6.9631 10.2138C7.55182 10.2913 8.21785 10.3292 8.75747 10.0387C9.32123 9.73549 9.69843 9.12411 10.0102 8.57126Z" fill="#FEFEFE"/>
</svg>
