<svg width="82" height="82" viewBox="0 0 82 82" fill="none" xmlns="http://www.w3.org/2000/svg">
<path d="M41 81C63.0914 81 81 63.0914 81 41C81 18.9086 63.0914 1 41 1C18.9086 1 1 18.9086 1 41C1 63.0914 18.9086 81 41 81Z" stroke="black" stroke-width="1.5" stroke-linecap="round" stroke-linejoin="round"/>
<path fill-rule="evenodd" clip-rule="evenodd" d="M42.7944 30.2204C43.493 29.8126 44.0408 29.1781 44.3523 28.4161C44.6637 27.6541 44.7212 26.8074 44.5159 26.0082C44.3106 25.209 43.854 24.5022 43.2173 23.9982C42.5806 23.4942 41.7997 23.2213 40.9965 23.2222C40.1933 23.223 39.4129 23.4975 38.7772 24.0028C38.1416 24.5082 37.6863 25.2159 37.4826 26.0155C37.2788 26.8152 37.338 27.6617 37.651 28.4231C37.9639 29.1845 38.5129 29.8178 39.2124 30.2242L39.1942 30.2579C38.0032 32.816 36.3486 36.4802 33.7939 37.8557C31.6956 38.9841 28.6846 38.4171 26.4481 37.9942C26.4122 37.4707 26.2345 36.9682 25.9351 36.5434C25.6358 36.1187 25.2268 35.7888 24.7545 35.5913C24.2822 35.3937 23.7656 35.3363 23.2632 35.4256C22.7608 35.5149 22.2928 35.7473 21.9123 36.0965C21.5318 36.4457 21.254 36.8977 21.1104 37.4012C20.9668 37.9046 20.9632 38.4395 21.1 38.9449C21.2368 39.4504 21.5085 39.9063 21.8843 40.2608C22.2601 40.6154 22.725 40.8545 23.2261 40.9509L28.5864 55.1922C28.9839 56.2479 29.6823 57.1553 30.5899 57.7952C31.4975 58.4351 32.5719 58.7776 33.6721 58.7777H48.3274C49.4276 58.7776 50.502 58.4351 51.4096 57.7952C52.3172 57.1553 53.0156 56.2479 53.4131 55.1922L58.7716 40.9509C59.2696 40.8556 59.7319 40.6193 60.1068 40.2687C60.4817 39.9182 60.7543 39.4671 60.8941 38.966C61.0339 38.4649 61.0353 37.9337 60.8983 37.4318C60.7612 36.9299 60.4911 36.4773 60.1182 36.1245C59.7452 35.7717 59.2842 35.5328 58.7868 35.4345C58.2893 35.3362 57.7751 35.3825 57.3018 35.568C56.8284 35.7536 56.4146 36.0711 56.1068 36.4851C55.7989 36.8991 55.6091 37.3931 55.5587 37.9118C53.2695 38.2168 50.3184 38.6061 48.2056 37.4702C45.7018 36.1228 44.0236 32.7112 42.7944 30.2204ZM41.0452 34.65C42.4416 36.9817 44.1163 39.4913 46.5219 40.7881C48.9347 42.085 51.904 42.0195 54.5587 41.7856L50.0221 53.8391C49.8897 54.1911 49.657 54.4936 49.3546 54.707C49.0522 54.9204 48.6941 55.0347 48.3274 55.035H33.6721C33.3054 55.0347 32.9474 54.9204 32.6449 54.707C32.3425 54.4936 32.1098 54.1911 31.9775 53.8391L27.5027 41.9503C30.1192 42.2946 33.0793 42.463 35.4776 41.1718C37.9832 39.8244 39.6597 37.1071 41.0452 34.65Z" fill="black"/>
</svg>
